<?xml version="1.0" encoding="UTF-8"?>
<!DOCTYPE svg PUBLIC "-//W3C//DTD SVG 1.1//EN" "http://www.w3.org/Graphics/SVG/1.1/DTD/svg11.dtd">
<svg version="1.1" xmlns="http://www.w3.org/2000/svg" xmlns:xlink="http://www.w3.org/1999/xlink" x="0" y="0" width="207" height="45" viewBox="0, 0, 230, 50">
  <g id="Layer_1">
    <path d="M108.969,12.244 C110.774,12.244 112.453,12.581 114.008,13.252 C115.563,13.925 116.926,14.846 118.097,16.017 C119.268,17.188 120.189,18.551 120.861,20.106 C121.532,21.66 121.869,23.341 121.869,25.145 L121.869,35.511 C121.869,37.317 121.532,38.995 120.861,40.551 C120.189,42.106 119.268,43.478 118.097,44.668 C116.926,45.858 115.563,46.79 114.008,47.461 C112.453,48.133 110.774,48.469 108.969,48.469 L106.377,48.469 L106.377,43.344 L108.969,43.344 C110.697,43.344 112.222,42.855 113.547,41.875 C114.872,40.896 115.802,39.638 116.341,38.103 L108.969,38.103 C107.203,38.103 105.532,37.767 103.958,37.095 C102.383,36.424 101.002,35.493 99.812,34.302 C98.621,33.112 97.69,31.731 97.019,30.155 C96.346,28.582 96.011,26.911 96.011,25.145 C96.011,23.341 96.346,21.66 97.019,20.106 C97.69,18.551 98.621,17.188 99.812,16.017 C101.002,14.846 102.383,13.925 103.958,13.252 C105.532,12.581 107.203,12.244 108.969,12.244 z M101.136,25.145 C101.136,26.22 101.338,27.238 101.741,28.197 C102.144,29.157 102.7,29.992 103.411,30.702 C104.121,31.414 104.956,31.97 105.917,32.373 C106.876,32.775 107.894,32.977 108.969,32.977 L116.801,32.977 L116.801,25.145 C116.801,24.071 116.599,23.063 116.196,22.122 C115.794,21.181 115.237,20.356 114.526,19.645 C113.816,18.935 112.981,18.378 112.021,17.975 C111.061,17.572 110.044,17.371 108.969,17.371 C107.894,17.371 106.876,17.572 105.917,17.975 C104.956,18.378 104.121,18.935 103.411,19.645 C102.7,20.356 102.144,21.181 101.741,22.122 C101.338,23.063 101.136,24.071 101.136,25.145" fill="#00A500"/>
    <path d="M139.597,12.244 L139.597,17.371 L137.005,17.371 C135.93,17.371 134.923,17.572 133.982,17.975 C133.041,18.378 132.216,18.935 131.505,19.645 C130.795,20.356 130.239,21.181 129.836,22.122 C129.432,23.063 129.231,24.071 129.231,25.145 L129.231,38.103 L124.047,38.103 L124.047,25.145 C124.047,23.341 124.384,21.66 125.055,20.106 C125.726,18.551 126.658,17.188 127.848,16.017 C129.038,14.846 130.42,13.925 131.996,13.252 C133.57,12.581 135.239,12.244 137.005,12.244 L139.597,12.244" fill="#00A500"/>
    <path d="M161.366,29.004 L164.994,32.632 L163.21,34.417 C161.98,35.646 160.579,36.587 159.005,37.239 C157.43,37.892 155.78,38.219 154.052,38.219 C152.324,38.219 150.673,37.892 149.099,37.239 C147.524,36.587 146.124,35.646 144.895,34.417 C143.628,33.15 142.687,31.72 142.073,30.127 C141.459,28.534 141.152,26.911 141.152,25.26 C141.152,23.61 141.459,21.997 142.073,20.422 C142.687,18.849 143.628,17.427 144.895,16.161 C146.163,14.894 147.592,13.943 149.186,13.31 C150.779,12.677 152.401,12.36 154.052,12.36 C155.703,12.36 157.325,12.677 158.919,13.31 C160.512,13.943 161.942,14.894 163.21,16.161 L164.994,17.946 L150.655,32.286 C152.113,33.016 153.658,33.256 155.291,33.006 C156.922,32.757 158.352,32.019 159.581,30.789 L161.366,29.004 z M148.523,19.732 C146.988,21.267 146.219,23.111 146.219,25.26 C146.219,26.451 146.488,27.584 147.026,28.658 C147.487,28.197 148.187,27.498 149.128,26.557 C150.069,25.615 151.066,24.618 152.123,23.561 C153.179,22.506 154.196,21.498 155.175,20.537 C156.154,19.578 156.912,18.829 157.45,18.292 C155.991,17.563 154.446,17.312 152.814,17.543 C151.182,17.774 149.752,18.503 148.523,19.732" fill="#00A500"/>
    <path d="M186.994,29.004 L190.623,32.632 L188.837,34.417 C187.608,35.646 186.206,36.587 184.633,37.239 C183.057,37.892 181.408,38.219 179.68,38.219 C177.952,38.219 176.301,37.892 174.727,37.239 C173.152,36.587 171.751,35.646 170.523,34.417 C169.255,33.15 168.314,31.72 167.7,30.127 C167.086,28.534 166.779,26.911 166.779,25.26 C166.779,23.61 167.086,21.997 167.7,20.422 C168.314,18.849 169.255,17.427 170.523,16.161 C171.79,14.894 173.22,13.943 174.813,13.31 C176.406,12.677 178.029,12.36 179.68,12.36 C181.331,12.36 182.953,12.677 184.546,13.31 C186.139,13.943 187.57,14.894 188.837,16.161 L190.623,17.946 L176.282,32.286 C177.741,33.016 179.286,33.256 180.918,33.006 C182.55,32.757 183.979,32.019 185.208,30.789 L186.994,29.004 z M174.152,19.732 C172.615,21.267 171.848,23.111 171.848,25.26 C171.848,26.451 172.116,27.584 172.653,28.658 C173.115,28.197 173.815,27.498 174.756,26.557 C175.696,25.615 176.694,24.618 177.75,23.561 C178.806,22.506 179.824,21.498 180.803,20.537 C181.781,19.578 182.54,18.829 183.078,18.292 C181.618,17.563 180.073,17.312 178.441,17.543 C176.809,17.774 175.379,18.503 174.152,19.732" fill="#00A500"/>
    <path d="M193.357,20.164 C194.028,18.608 194.95,17.246 196.121,16.074 C197.292,14.904 198.664,13.982 200.239,13.31 C201.813,12.639 203.483,12.302 205.25,12.302 C207.055,12.302 208.734,12.639 210.289,13.31 C211.843,13.982 213.216,14.904 214.407,16.074 C215.596,17.246 216.528,18.608 217.2,20.164 C217.871,21.719 218.208,23.399 218.208,25.202 L218.208,38.161 L213.082,38.161 L213.082,25.202 C213.082,24.128 212.881,23.121 212.477,22.179 C212.075,21.239 211.518,20.414 210.807,19.703 C210.097,18.993 209.261,18.436 208.302,18.032 C207.342,17.629 206.324,17.427 205.25,17.427 C204.175,17.427 203.167,17.629 202.226,18.032 C201.285,18.436 200.46,18.993 199.75,19.703 C199.039,20.414 198.482,21.239 198.08,22.179 C197.676,23.121 197.475,24.128 197.475,25.202 L197.475,38.161 L192.349,38.161 L192.349,25.202 C192.349,23.399 192.685,21.719 193.357,20.164" fill="#00A500"/>
    <path d="M24.693,12.012 C26.489,12.012 28.161,12.347 29.71,13.015 C31.258,13.685 32.614,14.602 33.78,15.768 C34.946,16.935 35.863,18.29 36.532,19.839 C37.201,21.386 37.536,23.059 37.536,24.856 L37.536,37.756 L24.693,37.756 C22.934,37.756 21.271,37.421 19.704,36.752 C18.137,36.084 16.761,35.157 15.576,33.971 C14.392,32.787 13.464,31.411 12.796,29.843 C12.126,28.276 11.792,26.613 11.792,24.856 C11.792,23.059 12.126,21.386 12.796,19.839 C13.464,18.29 14.392,16.935 15.576,15.768 C16.761,14.602 18.137,13.685 19.704,13.015 C21.271,12.347 22.934,12.012 24.693,12.012 z M32.434,32.652 L32.434,24.856 C32.434,23.786 32.233,22.783 31.831,21.846 C31.43,20.909 30.875,20.087 30.168,19.379 C29.46,18.673 28.639,18.118 27.703,17.718 C26.766,17.316 25.763,17.115 24.693,17.115 C23.622,17.115 22.609,17.316 21.654,17.718 C20.698,18.118 19.867,18.673 19.16,19.379 C18.452,20.087 17.899,20.909 17.497,21.846 C17.096,22.783 16.895,23.786 16.895,24.856 C16.895,25.926 17.096,26.939 17.497,27.894 C17.899,28.85 18.452,29.681 19.16,30.389 C19.867,31.096 20.698,31.649 21.654,32.051 C22.609,32.451 23.622,32.652 24.693,32.652 L32.434,32.652" fill="#FF0101"/>
    <path d="M65.854,1.531 L65.854,24.798 C65.854,26.563 65.518,28.234 64.847,29.808 C64.174,31.383 63.252,32.765 62.082,33.954 C60.91,35.145 59.538,36.077 57.964,36.748 C56.389,37.42 54.72,37.756 52.953,37.756 C51.187,37.756 49.517,37.42 47.943,36.748 C46.368,36.077 44.986,35.145 43.796,33.954 C42.606,32.765 41.674,31.383 41.003,29.808 C40.332,28.234 39.995,26.563 39.995,24.798 C39.995,22.993 40.332,21.313 41.003,19.758 C41.674,18.203 42.606,16.842 43.796,15.67 C44.986,14.499 46.368,13.577 47.943,12.905 C49.517,12.234 51.187,11.897 52.953,11.897 L60.728,11.897 L60.728,1.531 L65.854,1.531 z M52.953,32.629 C54.028,32.629 55.036,32.428 55.977,32.025 C56.917,31.622 57.743,31.066 58.454,30.356 C59.163,29.645 59.721,28.81 60.123,27.85 C60.526,26.89 60.728,25.873 60.728,24.798 L60.728,17.023 L52.953,17.023 C51.878,17.023 50.86,17.225 49.901,17.628 C48.941,18.03 48.106,18.588 47.396,19.297 C46.685,20.008 46.129,20.833 45.726,21.774 C45.323,22.716 45.121,23.724 45.121,24.798 C45.121,25.873 45.323,26.89 45.726,27.85 C46.129,28.81 46.685,29.645 47.396,30.356 C48.106,31.066 48.941,31.622 49.901,32.025 C50.86,32.428 51.878,32.629 52.953,32.629" fill="#FF0101"/>
    <path d="M67.639,24.913 C67.639,23.109 67.974,21.428 68.647,19.873 C69.318,18.319 70.239,16.956 71.411,15.785 C72.582,14.613 73.955,13.692 75.529,13.02 C77.103,12.349 78.773,12.012 80.539,12.012 C82.343,12.012 84.023,12.349 85.579,13.02 C87.133,13.692 88.505,14.613 89.696,15.785 C90.886,16.956 91.817,18.319 92.49,19.873 C93.161,21.428 93.497,23.109 93.497,24.913 C93.497,26.679 93.161,28.35 92.49,29.923 C91.817,31.498 90.886,32.88 89.696,34.069 C88.505,35.26 87.133,36.191 85.579,36.863 C84.023,37.535 82.343,37.871 80.539,37.871 C78.773,37.871 77.103,37.535 75.529,36.863 C73.955,36.191 72.582,35.26 71.411,34.069 C70.239,32.88 69.318,31.498 68.647,29.923 C67.974,28.35 67.639,26.679 67.639,24.913 z M72.707,24.913 C72.707,25.988 72.908,27.006 73.312,27.965 C73.715,28.925 74.271,29.76 74.981,30.47 C75.691,31.181 76.527,31.737 77.486,32.14 C78.446,32.544 79.463,32.745 80.539,32.745 C81.613,32.745 82.632,32.544 83.591,32.14 C84.551,31.737 85.386,31.181 86.096,30.47 C86.806,29.76 87.363,28.925 87.767,27.965 C88.17,27.006 88.371,25.988 88.371,24.913 C88.371,23.838 88.17,22.83 87.767,21.89 C87.363,20.949 86.806,20.123 86.096,19.413 C85.386,18.703 84.551,18.146 83.591,17.742 C82.632,17.339 81.613,17.138 80.539,17.138 C79.463,17.138 78.446,17.339 77.486,17.742 C76.527,18.146 75.691,18.703 74.981,19.413 C74.271,20.123 73.715,20.949 73.312,21.89 C72.908,22.83 72.707,23.838 72.707,24.913" fill="#FF0101"/>
  </g>
</svg>
