<?xml version="1.0" encoding="UTF-8"?>
<!DOCTYPE svg PUBLIC "-//W3C//DTD SVG 1.1//EN" "http://www.w3.org/Graphics/SVG/1.1/DTD/svg11.dtd">
<svg version="1.1" xmlns="http://www.w3.org/2000/svg" xmlns:xlink="http://www.w3.org/1999/xlink" x="0" y="0" width="108" height="33" viewBox="0, 0, 180, 55">
  <g id="Layer_1">
    <g>
      <path d="M0.347,-0 L61.681,-0 C68.581,-0 74.175,5.594 74.175,12.494 L74.175,34.358 L12.841,34.358 C5.941,34.358 0.347,28.765 0.347,21.864 L0.347,-0 z" fill="#FC0808"/>
      <g id="Name2">
        <path d="M87.149,10.838 C88.681,10.838 90.105,11.123 91.425,11.693 C92.744,12.264 93.901,13.046 94.895,14.039 C95.889,15.033 96.671,16.189 97.241,17.509 C97.81,18.828 98.096,20.254 98.096,21.785 L98.096,30.582 C98.096,32.114 97.81,33.539 97.241,34.859 C96.671,36.178 95.889,37.343 94.895,38.353 C93.901,39.362 92.744,40.153 91.425,40.723 C90.105,41.293 88.681,41.578 87.149,41.578 L84.95,41.578 L84.95,37.229 L87.149,37.229 C88.615,37.229 89.91,36.814 91.034,35.983 C92.158,35.152 92.948,34.084 93.405,32.782 L87.149,32.782 C85.65,32.782 84.233,32.496 82.897,31.926 C81.561,31.357 80.388,30.566 79.378,29.556 C78.368,28.546 77.577,27.374 77.008,26.037 C76.437,24.702 76.153,23.284 76.153,21.785 C76.153,20.254 76.437,18.828 77.008,17.509 C77.577,16.189 78.368,15.033 79.378,14.039 C80.388,13.046 81.561,12.264 82.897,11.693 C84.233,11.123 85.65,10.838 87.149,10.838 z M80.502,21.785 C80.502,22.698 80.673,23.561 81.016,24.376 C81.358,25.19 81.829,25.899 82.433,26.501 C83.035,27.105 83.744,27.577 84.559,27.919 C85.373,28.26 86.237,28.431 87.149,28.431 L93.795,28.431 L93.795,21.785 C93.795,20.874 93.624,20.018 93.282,19.22 C92.941,18.421 92.468,17.721 91.865,17.118 C91.262,16.516 90.553,16.043 89.739,15.701 C88.924,15.359 88.061,15.188 87.149,15.188 C86.237,15.188 85.373,15.359 84.559,15.701 C83.744,16.043 83.035,16.516 82.433,17.118 C81.829,17.721 81.358,18.421 81.016,19.22 C80.673,20.018 80.502,20.874 80.502,21.785" fill="#00A500"/>
        <path d="M112.659,10.838 L112.659,15.188 L110.46,15.188 C109.548,15.188 108.693,15.359 107.895,15.701 C107.096,16.043 106.396,16.516 105.793,17.118 C105.19,17.721 104.718,18.421 104.376,19.22 C104.034,20.018 103.863,20.874 103.863,21.785 L103.863,32.782 L99.464,32.782 L99.464,21.785 C99.464,20.254 99.75,18.828 100.32,17.509 C100.889,16.189 101.68,15.033 102.69,14.039 C103.7,13.046 104.872,12.264 106.209,11.693 C107.545,11.123 108.961,10.838 110.46,10.838 L112.659,10.838" fill="#00A500"/>
        <path d="M131.133,25.06 L134.212,28.139 L132.697,29.653 C131.654,30.696 130.465,31.495 129.13,32.048 C127.793,32.603 126.392,32.879 124.927,32.879 C123.46,32.879 122.059,32.603 120.723,32.048 C119.387,31.495 118.198,30.696 117.156,29.653 C116.08,28.579 115.282,27.365 114.761,26.013 C114.24,24.661 113.979,23.284 113.979,21.883 C113.979,20.482 114.24,19.114 114.761,17.777 C115.282,16.442 116.08,15.236 117.156,14.161 C118.231,13.086 119.445,12.279 120.797,11.742 C122.148,11.205 123.525,10.936 124.927,10.936 C126.327,10.936 127.704,11.205 129.056,11.742 C130.408,12.279 131.622,13.086 132.697,14.161 L134.212,15.676 L122.043,27.845 C123.281,28.464 124.592,28.668 125.977,28.456 C127.362,28.245 128.575,27.618 129.618,26.575 L131.133,25.06 z M120.235,17.191 C118.931,18.495 118.279,20.059 118.279,21.883 C118.279,22.893 118.507,23.855 118.964,24.767 C119.355,24.376 119.949,23.782 120.748,22.983 C121.546,22.184 122.392,21.338 123.289,20.441 C124.185,19.546 125.049,18.69 125.879,17.875 C126.71,17.061 127.353,16.426 127.81,15.969 C126.571,15.351 125.26,15.138 123.876,15.334 C122.491,15.53 121.277,16.149 120.235,17.191" fill="#00A500"/>
        <path d="M152.881,25.06 L155.96,28.139 L154.445,29.653 C153.402,30.696 152.212,31.495 150.877,32.048 C149.54,32.603 148.14,32.879 146.674,32.879 C145.208,32.879 143.807,32.603 142.471,32.048 C141.135,31.495 139.946,30.696 138.903,29.653 C137.828,28.579 137.029,27.365 136.508,26.013 C135.987,24.661 135.727,23.284 135.727,21.883 C135.727,20.482 135.987,19.114 136.508,17.777 C137.029,16.442 137.828,15.236 138.903,14.161 C139.979,13.086 141.192,12.279 142.544,11.742 C143.896,11.205 145.273,10.936 146.674,10.936 C148.075,10.936 149.452,11.205 150.804,11.742 C152.155,12.279 153.369,13.086 154.445,14.161 L155.96,15.676 L143.791,27.845 C145.029,28.464 146.34,28.668 147.725,28.456 C149.109,28.245 150.322,27.618 151.365,26.575 L152.881,25.06 z M141.983,17.191 C140.679,18.495 140.027,20.059 140.027,21.883 C140.027,22.893 140.255,23.855 140.711,24.767 C141.103,24.376 141.697,23.782 142.496,22.983 C143.293,22.184 144.14,21.338 145.037,20.441 C145.933,19.546 146.796,18.69 147.627,17.875 C148.458,17.061 149.101,16.426 149.557,15.969 C148.319,15.351 147.008,15.138 145.623,15.334 C144.238,15.53 143.024,16.149 141.983,17.191" fill="#00A500"/>
        <path d="M158.281,17.558 C158.85,16.238 159.632,15.082 160.626,14.087 C161.62,13.095 162.784,12.312 164.121,11.742 C165.456,11.172 166.874,10.887 168.373,10.887 C169.904,10.887 171.329,11.172 172.649,11.742 C173.968,12.312 175.133,13.095 176.143,14.087 C177.153,15.082 177.943,16.238 178.514,17.558 C179.083,18.878 179.369,20.303 179.369,21.834 L179.369,32.831 L175.019,32.831 L175.019,21.834 C175.019,20.922 174.849,20.067 174.506,19.268 C174.164,18.47 173.692,17.771 173.089,17.167 C172.486,16.564 171.777,16.092 170.963,15.749 C170.148,15.407 169.284,15.236 168.373,15.236 C167.46,15.236 166.605,15.407 165.807,15.749 C165.008,16.092 164.308,16.564 163.706,17.167 C163.103,17.771 162.63,18.47 162.288,19.268 C161.946,20.067 161.775,20.922 161.775,21.834 L161.775,32.831 L157.425,32.831 L157.425,21.834 C157.425,20.303 157.711,18.878 158.281,17.558" fill="#00A500"/>
        <path d="M13.455,10.64 C14.979,10.64 16.398,10.925 17.712,11.492 C19.026,12.06 20.177,12.839 21.166,13.828 C22.155,14.818 22.934,15.968 23.501,17.282 C24.069,18.596 24.353,20.015 24.353,21.54 L24.353,32.487 L13.455,32.487 C11.962,32.487 10.551,32.203 9.221,31.635 C7.891,31.068 6.723,30.281 5.718,29.275 C4.713,28.27 3.926,27.103 3.359,25.772 C2.791,24.442 2.507,23.031 2.507,21.54 C2.507,20.015 2.791,18.596 3.359,17.282 C3.926,15.968 4.713,14.818 5.718,13.828 C6.723,12.839 7.891,12.06 9.221,11.492 C10.551,10.925 11.962,10.64 13.455,10.64 z M20.023,28.156 L20.023,21.54 C20.023,20.632 19.853,19.78 19.512,18.985 C19.172,18.19 18.701,17.493 18.101,16.892 C17.5,16.293 16.803,15.822 16.009,15.482 C15.214,15.142 14.363,14.971 13.455,14.971 C12.546,14.971 11.686,15.142 10.876,15.482 C10.065,15.822 9.36,16.293 8.76,16.892 C8.159,17.493 7.689,18.19 7.349,18.985 C7.008,19.78 6.838,20.632 6.838,21.54 C6.838,22.448 7.008,23.307 7.349,24.118 C7.689,24.929 8.159,25.635 8.76,26.235 C9.36,26.835 10.065,27.305 10.876,27.646 C11.686,27.986 12.546,28.156 13.455,28.156 L20.023,28.156" fill="#FFFFFF"/>
        <path d="M48.384,1.746 L48.384,21.491 C48.384,22.989 48.099,24.406 47.529,25.742 C46.958,27.079 46.176,28.251 45.183,29.261 C44.189,30.271 43.024,31.062 41.688,31.631 C40.352,32.201 38.935,32.487 37.437,32.487 C35.938,32.487 34.52,32.201 33.185,31.631 C31.848,31.062 30.676,30.271 29.666,29.261 C28.656,28.251 27.865,27.079 27.296,25.742 C26.726,24.406 26.44,22.989 26.44,21.491 C26.44,19.959 26.726,18.533 27.296,17.214 C27.865,15.894 28.656,14.739 29.666,13.744 C30.676,12.751 31.848,11.969 33.185,11.398 C34.52,10.829 35.938,10.543 37.437,10.543 L44.034,10.543 L44.034,1.746 L48.384,1.746 z M37.437,28.136 C38.348,28.136 39.204,27.965 40.003,27.624 C40.8,27.282 41.501,26.81 42.104,26.207 C42.706,25.604 43.179,24.895 43.521,24.081 C43.863,23.266 44.034,22.403 44.034,21.491 L44.034,14.893 L37.437,14.893 C36.524,14.893 35.66,15.064 34.846,15.406 C34.031,15.748 33.323,16.221 32.721,16.823 C32.117,17.426 31.645,18.126 31.303,18.925 C30.961,19.724 30.79,20.579 30.79,21.491 C30.79,22.403 30.961,23.266 31.303,24.081 C31.645,24.895 32.117,25.604 32.721,26.207 C33.323,26.81 34.031,27.282 34.846,27.624 C35.66,27.965 36.524,28.136 37.437,28.136" fill="#FFFFFF"/>
        <path d="M49.899,21.588 C49.899,20.057 50.183,18.631 50.754,17.311 C51.323,15.993 52.105,14.836 53.1,13.842 C54.093,12.848 55.258,12.066 56.594,11.496 C57.93,10.926 59.347,10.64 60.846,10.64 C62.377,10.64 63.802,10.926 65.122,11.496 C66.441,12.066 67.606,12.848 68.617,13.842 C69.626,14.836 70.416,15.993 70.987,17.311 C71.557,18.631 71.842,20.057 71.842,21.588 C71.842,23.087 71.557,24.505 70.987,25.84 C70.416,27.177 69.626,28.349 68.617,29.358 C67.606,30.369 66.441,31.159 65.122,31.729 C63.802,32.299 62.377,32.585 60.846,32.585 C59.347,32.585 57.93,32.299 56.594,31.729 C55.258,31.159 54.093,30.369 53.1,29.358 C52.105,28.349 51.323,27.177 50.754,25.84 C50.183,24.505 49.899,23.087 49.899,21.588 z M54.199,21.588 C54.199,22.501 54.37,23.365 54.713,24.178 C55.055,24.993 55.527,25.702 56.13,26.304 C56.732,26.907 57.441,27.379 58.255,27.722 C59.07,28.064 59.933,28.235 60.846,28.235 C61.757,28.235 62.621,28.064 63.436,27.722 C64.25,27.379 64.959,26.907 65.562,26.304 C66.164,25.702 66.637,24.993 66.979,24.178 C67.321,23.365 67.492,22.501 67.492,21.588 C67.492,20.676 67.321,19.821 66.979,19.023 C66.637,18.224 66.164,17.524 65.562,16.921 C64.959,16.318 64.25,15.846 63.436,15.503 C62.621,15.161 61.757,14.99 60.846,14.99 C59.933,14.99 59.07,15.161 58.255,15.503 C57.441,15.846 56.732,16.318 56.13,16.921 C55.527,17.524 55.055,18.224 54.713,19.023 C54.37,19.821 54.199,20.676 54.199,21.588" fill="#FFFFFF"/>
        <path d="M6.991,46.956 C6.991,46.678 6.928,46.437 6.819,46.229 C6.702,46.027 6.499,45.873 6.211,45.756 C6.016,45.679 5.781,45.625 5.525,45.609 C5.259,45.594 4.947,45.578 4.596,45.578 L3.542,45.578 L3.542,48.612 L4.439,48.612 C4.907,48.612 5.297,48.589 5.61,48.543 C5.93,48.496 6.188,48.396 6.406,48.234 C6.609,48.079 6.758,47.909 6.851,47.715 C6.945,47.529 6.991,47.274 6.991,46.956 z M11.556,54.767 L7.983,54.767 L4.884,50.642 L3.542,50.642 L3.542,54.767 L0.631,54.767 L0.631,43.512 L5.532,43.512 C6.203,43.512 6.781,43.55 7.264,43.628 C7.748,43.697 8.201,43.859 8.622,44.115 C9.052,44.371 9.388,44.696 9.636,45.091 C9.895,45.494 10.019,45.996 10.019,46.601 C10.019,47.437 9.824,48.109 9.434,48.637 C9.044,49.162 8.49,49.596 7.771,49.944 L11.556,54.767 z M26.368,54.767 L18.167,54.767 L18.167,43.512 L26.368,43.512 L26.368,45.687 L21.078,45.687 L21.078,47.63 L25.987,47.63 L25.987,49.806 L21.078,49.806 L21.078,52.592 L26.368,52.592 L26.368,54.767 z M39.283,54.984 C38.441,54.984 37.66,54.861 36.943,54.613 C36.232,54.372 35.616,54 35.108,53.513 C34.593,53.026 34.196,52.413 33.915,51.687 C33.634,50.95 33.494,50.106 33.494,49.147 C33.494,48.257 33.626,47.452 33.892,46.724 C34.165,45.996 34.555,45.377 35.069,44.858 C35.561,44.355 36.17,43.968 36.903,43.697 C37.629,43.426 38.426,43.294 39.292,43.294 C39.768,43.294 40.197,43.318 40.579,43.372 C40.961,43.426 41.321,43.495 41.648,43.581 C41.984,43.674 42.296,43.782 42.569,43.899 C42.85,44.015 43.093,44.13 43.295,44.231 L43.295,46.956 L42.959,46.956 C42.819,46.84 42.64,46.694 42.429,46.53 C42.21,46.36 41.969,46.197 41.688,46.035 C41.414,45.873 41.11,45.74 40.782,45.625 C40.454,45.517 40.111,45.463 39.736,45.463 C39.33,45.463 38.94,45.524 38.566,45.656 C38.191,45.779 37.855,45.996 37.536,46.291 C37.239,46.578 36.997,46.965 36.811,47.437 C36.622,47.909 36.528,48.481 36.528,49.155 C36.528,49.867 36.631,50.455 36.834,50.927 C37.036,51.4 37.287,51.772 37.591,52.042 C37.903,52.321 38.245,52.523 38.629,52.639 C39.011,52.754 39.386,52.816 39.753,52.816 C40.111,52.816 40.462,52.762 40.814,52.662 C41.157,52.554 41.477,52.406 41.773,52.228 C42.024,52.082 42.257,51.926 42.467,51.756 C42.678,51.593 42.858,51.446 42.991,51.331 L43.295,51.331 L43.295,54.016 C43.014,54.149 42.741,54.264 42.483,54.372 C42.225,54.489 41.953,54.582 41.663,54.659 C41.297,54.767 40.946,54.844 40.627,54.907 C40.298,54.961 39.854,54.984 39.283,54.984 z M57.14,46.956 C57.14,46.678 57.077,46.437 56.968,46.229 C56.851,46.027 56.647,45.873 56.358,45.756 C56.163,45.679 55.93,45.625 55.672,45.609 C55.406,45.594 55.094,45.578 54.743,45.578 L53.69,45.578 L53.69,48.612 L54.587,48.612 C55.056,48.612 55.446,48.589 55.758,48.543 C56.077,48.496 56.335,48.396 56.553,48.234 C56.757,48.079 56.905,47.909 56.998,47.715 C57.092,47.529 57.14,47.274 57.14,46.956 z M61.705,54.767 L58.13,54.767 L55.031,50.642 L53.69,50.642 L53.69,54.767 L50.779,54.767 L50.779,43.512 L55.68,43.512 C56.352,43.512 56.928,43.55 57.413,43.628 C57.895,43.697 58.348,43.859 58.77,44.115 C59.199,44.371 59.535,44.696 59.784,45.091 C60.042,45.494 60.166,45.996 60.166,46.601 C60.166,47.437 59.971,48.109 59.581,48.637 C59.191,49.162 58.637,49.596 57.919,49.944 L61.705,54.767 z M78.249,50.695 C78.249,52.082 77.82,53.149 76.969,53.892 C76.119,54.628 74.854,55 73.2,55 C71.537,55 70.281,54.628 69.43,53.892 C68.58,53.149 68.151,52.088 68.151,50.703 L68.151,43.512 L71.093,43.512 L71.093,50.532 C71.093,51.314 71.256,51.895 71.584,52.282 C71.919,52.662 72.45,52.855 73.2,52.855 C73.926,52.855 74.464,52.669 74.8,52.306 C75.135,51.934 75.307,51.346 75.307,50.532 L75.307,43.512 L78.249,43.512 L78.249,50.695 z M92.452,54.767 L85.803,54.767 L85.803,52.77 L87.66,52.77 L87.66,45.509 L85.803,45.509 L85.803,43.512 L92.452,43.512 L92.452,45.509 L90.586,45.509 L90.586,52.77 L92.452,52.77 L92.452,54.767 z M109.036,45.687 L105.492,45.687 L105.492,54.767 L102.565,54.767 L102.565,45.687 L99.023,45.687 L99.023,43.512 L109.036,43.512 L109.036,45.687 z M128.021,54.767 L125.111,54.767 L125.111,47.227 L123.004,52.119 L120.99,52.119 L118.883,47.227 L118.883,54.767 L116.129,54.767 L116.129,43.512 L119.524,43.512 L122.076,49.155 L124.62,43.512 L128.021,43.512 L128.021,54.767 z M144.448,54.767 L136.247,54.767 L136.247,43.512 L144.448,43.512 L144.448,45.687 L139.158,45.687 L139.158,47.63 L144.067,47.63 L144.067,49.806 L139.158,49.806 L139.158,52.592 L144.448,52.592 L144.448,54.767 z M162.555,54.767 L159.728,54.767 L154.914,47.042 L154.914,54.767 L152.238,54.767 L152.238,43.512 L155.734,43.512 L159.87,49.96 L159.87,43.512 L162.555,43.512 L162.555,54.767 z M179.653,45.687 L176.109,45.687 L176.109,54.767 L173.182,54.767 L173.182,45.687 L169.64,45.687 L169.64,43.512 L179.653,43.512 L179.653,45.687" fill="#95A5A6"/>
      </g>
    </g>
  </g>
</svg>
