<?xml version="1.0" encoding="UTF-8"?>
<!DOCTYPE svg PUBLIC "-//W3C//DTD SVG 1.1//EN" "http://www.w3.org/Graphics/SVG/1.1/DTD/svg11.dtd">
<svg version="1.1" xmlns="http://www.w3.org/2000/svg" xmlns:xlink="http://www.w3.org/1999/xlink" x="0" y="0" width="138" height="30" viewBox="0, 0, 138, 30">
  <g id="Layer_1">
    <g>
      <path d="M64.787,7.384 C65.905,7.384 66.944,7.592 67.907,8.008 C68.868,8.424 69.713,8.995 70.438,9.719 C71.163,10.444 71.733,11.288 72.149,12.251 C72.565,13.213 72.774,14.253 72.774,15.37 L72.774,21.787 C72.774,22.904 72.565,23.944 72.149,24.907 C71.733,25.868 71.163,26.719 70.438,27.456 C69.713,28.192 68.868,28.768 67.907,29.184 C66.944,29.601 65.905,29.809 64.787,29.809 L63.183,29.809 L63.183,26.635 L64.787,26.635 C65.857,26.635 66.802,26.333 67.622,25.727 C68.442,25.121 69.019,24.341 69.352,23.391 L64.787,23.391 C63.694,23.391 62.659,23.184 61.685,22.769 C60.71,22.352 59.856,21.776 59.118,21.039 C58.383,20.302 57.805,19.446 57.39,18.471 C56.974,17.497 56.766,16.463 56.766,15.37 C56.766,14.253 56.974,13.213 57.39,12.251 C57.805,11.288 58.383,10.444 59.118,9.719 C59.856,8.995 60.71,8.424 61.685,8.008 C62.659,7.592 63.694,7.384 64.787,7.384 M59.939,15.37 C59.939,16.035 60.064,16.666 60.313,17.259 C60.563,17.854 60.907,18.371 61.347,18.811 C61.786,19.25 62.303,19.594 62.898,19.843 C63.491,20.094 64.122,20.218 64.787,20.218 L69.636,20.218 L69.636,15.37 C69.636,14.704 69.512,14.081 69.262,13.499 C69.012,12.917 68.667,12.405 68.228,11.964 C67.788,11.526 67.271,11.181 66.676,10.931 C66.083,10.682 65.452,10.557 64.787,10.557 C64.122,10.557 63.491,10.682 62.898,10.931 C62.303,11.181 61.786,11.526 61.347,11.964 C60.907,12.405 60.563,12.917 60.313,13.499 C60.064,14.081 59.939,14.704 59.939,15.37" fill="#15A748"/>
      <path d="M64.787,7.384 C65.905,7.384 66.944,7.592 67.907,8.008 C68.868,8.424 69.713,8.995 70.438,9.719 C71.163,10.444 71.733,11.288 72.149,12.251 C72.565,13.213 72.774,14.253 72.774,15.37 L72.774,21.787 C72.774,22.904 72.565,23.944 72.149,24.907 C71.733,25.868 71.163,26.719 70.438,27.456 C69.713,28.192 68.868,28.768 67.907,29.184 C66.944,29.601 65.905,29.809 64.787,29.809 L63.183,29.809 L63.183,26.635 L64.787,26.635 C65.857,26.635 66.802,26.333 67.622,25.727 C68.442,25.121 69.019,24.341 69.352,23.391 L64.787,23.391 C63.694,23.391 62.659,23.184 61.685,22.769 C60.71,22.352 59.856,21.776 59.118,21.039 C58.383,20.302 57.805,19.446 57.39,18.471 C56.974,17.497 56.766,16.463 56.766,15.37 C56.766,14.253 56.974,13.213 57.39,12.251 C57.805,11.288 58.383,10.444 59.118,9.719 C59.856,8.995 60.71,8.424 61.685,8.008 C62.659,7.592 63.694,7.384 64.787,7.384 M59.939,15.37 C59.939,16.035 60.064,16.666 60.313,17.259 C60.563,17.854 60.907,18.371 61.347,18.811 C61.786,19.25 62.303,19.594 62.898,19.843 C63.491,20.094 64.122,20.218 64.787,20.218 L69.636,20.218 L69.636,15.37 C69.636,14.704 69.512,14.081 69.262,13.499 C69.012,12.917 68.667,12.405 68.228,11.964 C67.788,11.526 67.271,11.181 66.676,10.931 C66.083,10.682 65.452,10.557 64.787,10.557 C64.122,10.557 63.491,10.682 62.898,10.931 C62.303,11.181 61.786,11.526 61.347,11.964 C60.907,12.405 60.563,12.917 60.313,13.499 C60.064,14.081 59.939,14.704 59.939,15.37" fill-opacity="0" stroke="#FFFFFF" stroke-width="1"/>
    </g>
    <g>
      <path d="M108.958,16.432 C109.233,16.157 109.651,15.739 110.213,15.178 C110.772,14.616 111.369,14.021 111.999,13.39 C112.63,12.761 113.236,12.159 113.82,11.587 C113.854,11.553 113.882,11.525 113.915,11.493 C112.465,11.473 111.007,11.457 109.543,11.442 C108.833,12.288 108.477,13.275 108.477,14.404 C108.477,15.115 108.638,15.791 108.958,16.432" fill="#15A748"/>
      <path d="M108.958,16.432 C109.233,16.157 109.651,15.739 110.213,15.178 C110.772,14.616 111.369,14.021 111.999,13.39 C112.63,12.761 113.236,12.159 113.82,11.587 C113.854,11.553 113.882,11.525 113.915,11.493 C112.465,11.473 111.007,11.457 109.543,11.442 C108.833,12.288 108.477,13.275 108.477,14.404 C108.477,15.115 108.638,15.791 108.958,16.432" fill-opacity="0" stroke="#FFFFFF" stroke-width="1"/>
    </g>
    <g>
      <path d="M110.213,15.177 C110.41,14.98 110.616,14.774 110.821,14.568 L108.486,14.568 C108.509,15.218 108.662,15.841 108.958,16.432 C109.233,16.157 109.651,15.739 110.213,15.177" fill="#15A748"/>
      <path d="M110.213,15.177 C110.41,14.98 110.616,14.774 110.821,14.568 L108.486,14.568 C108.509,15.218 108.662,15.841 108.958,16.432 C109.233,16.157 109.651,15.739 110.213,15.177" fill-opacity="0" stroke="#FFFFFF" stroke-width="1"/>
    </g>
    <g>
      <path d="M83.397,7.384 L83.397,10.557 L81.792,10.557 C81.127,10.557 80.503,10.682 79.921,10.931 C79.338,11.181 78.828,11.526 78.388,11.964 C77.948,12.405 77.604,12.917 77.354,13.499 C77.105,14.081 76.981,14.704 76.981,15.37 L76.981,23.391 L73.771,23.391 L73.771,15.37 C73.771,14.253 73.979,13.213 74.396,12.251 C74.81,11.288 75.388,10.444 76.124,9.719 C76.86,8.995 77.716,8.424 78.692,8.008 C79.666,7.592 80.698,7.384 81.792,7.384 L83.397,7.384" fill="#15A748"/>
      <path d="M83.397,7.384 L83.397,10.557 L81.792,10.557 C81.127,10.557 80.503,10.682 79.921,10.931 C79.338,11.181 78.828,11.526 78.388,11.964 C77.948,12.405 77.604,12.917 77.354,13.499 C77.105,14.081 76.981,14.704 76.981,15.37 L76.981,23.391 L73.771,23.391 L73.771,15.37 C73.771,14.253 73.979,13.213 74.396,12.251 C74.81,11.288 75.388,10.444 76.124,9.719 C76.86,8.995 77.716,8.424 78.692,8.008 C79.666,7.592 80.698,7.384 81.792,7.384 L83.397,7.384" fill-opacity="0" stroke="#FFFFFF" stroke-width="1"/>
    </g>
    <g>
      <path d="M96.872,17.759 L99.118,20.004 L98.013,21.11 C97.254,21.87 96.386,22.453 95.412,22.856 C94.436,23.261 93.415,23.463 92.345,23.463 C91.276,23.463 90.252,23.261 89.279,22.856 C88.304,22.453 87.436,21.87 86.676,21.11 C85.892,20.325 85.308,19.44 84.93,18.454 C84.549,17.468 84.36,16.463 84.36,15.442 C84.36,14.42 84.549,13.421 84.93,12.446 C85.308,11.472 85.892,10.593 86.676,9.808 C87.462,9.024 88.347,8.436 89.333,8.044 C90.318,7.651 91.323,7.456 92.345,7.456 C93.367,7.456 94.371,7.651 95.358,8.044 C96.343,8.436 97.229,9.024 98.013,9.808 L99.118,10.913 L90.241,19.791 C91.144,20.243 92.101,20.392 93.112,20.236 C94.122,20.083 95.006,19.625 95.768,18.864 z M88.923,12.019 C87.971,12.969 87.497,14.11 87.497,15.442 C87.497,16.178 87.664,16.88 87.995,17.545 C88.282,17.259 88.714,16.826 89.297,16.244 C89.878,15.661 90.496,15.044 91.151,14.389 C91.804,13.737 92.435,13.113 93.041,12.517 C93.646,11.924 94.116,11.461 94.448,11.127 C93.546,10.677 92.588,10.521 91.578,10.664 C90.569,10.807 89.683,11.258 88.923,12.019" fill="#15A748"/>
      <path d="M96.872,17.759 L99.118,20.004 L98.013,21.11 C97.254,21.87 96.386,22.453 95.412,22.856 C94.436,23.261 93.415,23.463 92.345,23.463 C91.276,23.463 90.252,23.261 89.279,22.856 C88.304,22.453 87.436,21.87 86.676,21.11 C85.892,20.325 85.308,19.44 84.93,18.454 C84.549,17.468 84.36,16.463 84.36,15.442 C84.36,14.42 84.549,13.421 84.93,12.446 C85.308,11.472 85.892,10.593 86.676,9.808 C87.462,9.024 88.347,8.436 89.333,8.044 C90.318,7.651 91.323,7.456 92.345,7.456 C93.367,7.456 94.371,7.651 95.358,8.044 C96.343,8.436 97.229,9.024 98.013,9.808 L99.118,10.913 L90.241,19.791 C91.144,20.243 92.101,20.392 93.112,20.236 C94.122,20.083 95.006,19.625 95.768,18.864 z M88.923,12.019 C87.971,12.969 87.497,14.11 87.497,15.442 C87.497,16.178 87.664,16.88 87.995,17.545 C88.282,17.259 88.714,16.826 89.297,16.244 C89.878,15.661 90.496,15.044 91.151,14.389 C91.804,13.737 92.435,13.113 93.041,12.517 C93.646,11.924 94.116,11.461 94.448,11.127 C93.546,10.677 92.588,10.521 91.578,10.664 C90.569,10.807 89.683,11.258 88.923,12.019" fill-opacity="0" stroke="#FFFFFF" stroke-width="1"/>
    </g>
    <g>
      <path d="M112.739,17.759 L114.983,20.004 L113.879,21.11 C113.117,21.87 112.25,22.453 111.276,22.856 C110.301,23.261 109.28,23.463 108.21,23.463 C107.141,23.463 106.118,23.261 105.144,22.856 C104.168,22.453 103.301,21.87 102.541,21.11 C101.757,20.325 101.175,19.44 100.795,18.454 C100.414,17.468 100.224,16.463 100.224,15.442 C100.224,14.42 100.414,13.421 100.795,12.446 C101.175,11.472 101.757,10.593 102.541,9.808 C103.327,9.024 104.21,8.436 105.199,8.044 C106.183,7.651 107.188,7.456 108.21,7.456 C109.232,7.456 110.235,7.651 111.223,8.044 C112.208,8.436 113.095,9.024 113.879,9.808 L114.983,10.913 L106.108,19.791 C107.009,20.243 107.966,20.392 108.975,20.236 C109.986,20.083 110.872,19.625 111.633,18.864 z M104.787,12.019 C103.836,12.969 103.362,14.11 103.362,15.442 C103.362,16.178 103.527,16.88 103.86,17.545 C104.147,17.259 104.579,16.826 105.162,16.244 C105.744,15.661 106.361,15.044 107.016,14.389 C107.669,13.737 108.3,13.113 108.904,12.517 C109.511,11.924 109.981,11.461 110.312,11.127 C109.41,10.677 108.453,10.521 107.443,10.664 C106.432,10.807 105.547,11.258 104.787,12.019" fill="#15A748"/>
      <path d="M112.739,17.759 L114.983,20.004 L113.879,21.11 C113.117,21.87 112.25,22.453 111.276,22.856 C110.301,23.261 109.28,23.463 108.21,23.463 C107.141,23.463 106.118,23.261 105.144,22.856 C104.168,22.453 103.301,21.87 102.541,21.11 C101.757,20.325 101.175,19.44 100.795,18.454 C100.414,17.468 100.224,16.463 100.224,15.442 C100.224,14.42 100.414,13.421 100.795,12.446 C101.175,11.472 101.757,10.593 102.541,9.808 C103.327,9.024 104.21,8.436 105.199,8.044 C106.183,7.651 107.188,7.456 108.21,7.456 C109.232,7.456 110.235,7.651 111.223,8.044 C112.208,8.436 113.095,9.024 113.879,9.808 L114.983,10.913 L106.108,19.791 C107.009,20.243 107.966,20.392 108.975,20.236 C109.986,20.083 110.872,19.625 111.633,18.864 z M104.787,12.019 C103.836,12.969 103.362,14.11 103.362,15.442 C103.362,16.178 103.527,16.88 103.86,17.545 C104.147,17.259 104.579,16.826 105.162,16.244 C105.744,15.661 106.361,15.044 107.016,14.389 C107.669,13.737 108.3,13.113 108.904,12.517 C109.511,11.924 109.981,11.461 110.312,11.127 C109.41,10.677 108.453,10.521 107.443,10.664 C106.432,10.807 105.547,11.258 104.787,12.019" fill-opacity="0" stroke="#FFFFFF" stroke-width="1"/>
    </g>
    <g>
      <path d="M116.676,12.286 C117.091,11.323 117.663,10.48 118.388,9.754 C119.112,9.03 119.962,8.46 120.937,8.044 C121.91,7.629 122.945,7.42 124.038,7.42 C125.155,7.42 126.196,7.629 127.158,8.044 C128.12,8.46 128.97,9.03 129.707,9.754 C130.443,10.48 131.021,11.323 131.437,12.286 C131.852,13.249 132.06,14.289 132.06,15.405 L132.06,23.427 L128.887,23.427 L128.887,15.405 C128.887,14.74 128.762,14.116 128.511,13.534 C128.264,12.952 127.918,12.442 127.48,12.001 C127.04,11.562 126.522,11.216 125.927,10.967 C125.334,10.717 124.704,10.593 124.038,10.593 C123.372,10.593 122.748,10.717 122.166,10.967 C121.584,11.216 121.073,11.562 120.633,12.001 C120.194,12.442 119.849,12.952 119.601,13.534 C119.35,14.116 119.225,14.74 119.225,15.405 L119.225,23.427 L116.052,23.427 L116.052,15.405 C116.052,14.289 116.26,13.249 116.676,12.286" fill="#15A748"/>
      <path d="M116.676,12.286 C117.091,11.323 117.663,10.48 118.388,9.754 C119.112,9.03 119.962,8.46 120.937,8.044 C121.91,7.629 122.945,7.42 124.038,7.42 C125.155,7.42 126.196,7.629 127.158,8.044 C128.12,8.46 128.97,9.03 129.707,9.754 C130.443,10.48 131.021,11.323 131.437,12.286 C131.852,13.249 132.06,14.289 132.06,15.405 L132.06,23.427 L128.887,23.427 L128.887,15.405 C128.887,14.74 128.762,14.116 128.511,13.534 C128.264,12.952 127.918,12.442 127.48,12.001 C127.04,11.562 126.522,11.216 125.927,10.967 C125.334,10.717 124.704,10.593 124.038,10.593 C123.372,10.593 122.748,10.717 122.166,10.967 C121.584,11.216 121.073,11.562 120.633,12.001 C120.194,12.442 119.849,12.952 119.601,13.534 C119.35,14.116 119.225,14.74 119.225,15.405 L119.225,23.427 L116.052,23.427 L116.052,15.405 C116.052,14.289 116.26,13.249 116.676,12.286" fill-opacity="0" stroke="#FFFFFF" stroke-width="1"/>
    </g>
    <g>
      <path d="M12.347,7.608 C13.463,7.608 14.504,7.817 15.467,8.232 C16.428,8.648 17.272,9.219 17.998,9.943 C18.723,10.668 19.293,11.512 19.709,12.475 C20.124,13.437 20.333,14.477 20.333,15.594 L20.333,23.615 L12.347,23.615 C11.253,23.615 10.22,23.407 9.245,22.992 C8.27,22.576 7.415,21.999 6.678,21.263 C5.942,20.526 5.364,19.671 4.95,18.696 C4.533,17.722 4.325,16.688 4.325,15.594 C4.325,14.477 4.533,13.437 4.95,12.475 C5.364,11.512 5.942,10.668 6.678,9.943 C7.415,9.219 8.27,8.648 9.245,8.232 C10.22,7.817 11.253,7.608 12.347,7.608 M17.16,20.442 L17.16,15.594 C17.16,14.929 17.035,14.305 16.786,13.722 C16.536,13.14 16.19,12.63 15.752,12.19 C15.312,11.75 14.801,11.405 14.218,11.155 C13.636,10.906 13.012,10.781 12.347,10.781 C11.681,10.781 11.051,10.906 10.458,11.155 C9.863,11.405 9.345,11.75 8.906,12.19 C8.467,12.63 8.122,13.14 7.873,13.722 C7.623,14.305 7.498,14.929 7.498,15.594 C7.498,16.259 7.623,16.89 7.873,17.484 C8.122,18.078 8.467,18.595 8.906,19.035 C9.345,19.474 9.863,19.819 10.458,20.068 C11.051,20.317 11.681,20.442 12.347,20.442 L17.16,20.442" fill="#B62831"/>
      <path d="M12.347,7.608 C13.463,7.608 14.504,7.817 15.467,8.232 C16.428,8.648 17.272,9.219 17.998,9.943 C18.723,10.668 19.293,11.512 19.709,12.475 C20.124,13.437 20.333,14.477 20.333,15.594 L20.333,23.615 L12.347,23.615 C11.253,23.615 10.22,23.407 9.245,22.992 C8.27,22.576 7.415,21.999 6.678,21.263 C5.942,20.526 5.364,19.671 4.95,18.696 C4.533,17.722 4.325,16.688 4.325,15.594 C4.325,14.477 4.533,13.437 4.95,12.475 C5.364,11.512 5.942,10.668 6.678,9.943 C7.415,9.219 8.27,8.648 9.245,8.232 C10.22,7.817 11.253,7.608 12.347,7.608 M17.16,20.442 L17.16,15.594 C17.16,14.929 17.035,14.305 16.786,13.722 C16.536,13.14 16.19,12.63 15.752,12.19 C15.312,11.75 14.801,11.405 14.218,11.155 C13.636,10.906 13.012,10.781 12.347,10.781 C11.681,10.781 11.051,10.906 10.458,11.155 C9.863,11.405 9.345,11.75 8.906,12.19 C8.467,12.63 8.122,13.14 7.873,13.722 C7.623,14.305 7.498,14.929 7.498,15.594 C7.498,16.259 7.623,16.89 7.873,17.484 C8.122,18.078 8.467,18.595 8.906,19.035 C9.345,19.474 9.863,19.819 10.458,20.068 C11.051,20.317 11.681,20.442 12.347,20.442 L17.16,20.442" fill-opacity="0" stroke="#FFFFFF" stroke-width="1"/>
    </g>
    <g>
      <path d="M37.863,1.191 L37.863,15.594 C37.863,16.688 37.655,17.722 37.239,18.696 C36.823,19.671 36.252,20.526 35.527,21.263 C34.802,21.999 33.953,22.577 32.979,22.992 C32.004,23.407 30.97,23.616 29.877,23.616 C28.784,23.616 27.75,23.407 26.776,22.992 C25.8,22.577 24.945,21.999 24.209,21.263 C23.471,20.526 22.895,19.671 22.479,18.696 C22.063,17.722 21.855,16.688 21.855,15.594 C21.855,14.478 22.063,13.437 22.479,12.475 C22.895,11.512 23.471,10.668 24.209,9.943 C24.945,9.219 25.8,8.648 26.776,8.232 C27.75,7.817 28.784,7.608 29.877,7.608 L34.689,7.608 L34.689,1.191 z M29.877,20.442 C30.541,20.442 31.165,20.318 31.749,20.068 C32.331,19.819 32.841,19.473 33.282,19.034 C33.721,18.595 34.066,18.078 34.315,17.484 C34.565,16.89 34.689,16.259 34.689,15.594 L34.689,10.782 L29.877,10.782 C29.211,10.782 28.581,10.906 27.988,11.156 C27.393,11.406 26.876,11.75 26.437,12.19 C25.996,12.63 25.653,13.14 25.403,13.722 C25.153,14.305 25.029,14.93 25.029,15.594 C25.029,16.259 25.153,16.89 25.403,17.484 C25.653,18.078 25.996,18.595 26.437,19.034 C26.876,19.473 27.393,19.819 27.988,20.068 C28.581,20.318 29.211,20.442 29.877,20.442" fill="#B62831"/>
      <path d="M37.863,1.191 L37.863,15.594 C37.863,16.688 37.655,17.722 37.239,18.696 C36.823,19.671 36.252,20.526 35.527,21.263 C34.802,21.999 33.953,22.577 32.979,22.992 C32.004,23.407 30.97,23.616 29.877,23.616 C28.784,23.616 27.75,23.407 26.776,22.992 C25.8,22.577 24.945,21.999 24.209,21.263 C23.471,20.526 22.895,19.671 22.479,18.696 C22.063,17.722 21.855,16.688 21.855,15.594 C21.855,14.478 22.063,13.437 22.479,12.475 C22.895,11.512 23.471,10.668 24.209,9.943 C24.945,9.219 25.8,8.648 26.776,8.232 C27.75,7.817 28.784,7.608 29.877,7.608 L34.689,7.608 L34.689,1.191 z M29.877,20.442 C30.541,20.442 31.165,20.318 31.749,20.068 C32.331,19.819 32.841,19.473 33.282,19.034 C33.721,18.595 34.066,18.078 34.315,17.484 C34.565,16.89 34.689,16.259 34.689,15.594 L34.689,10.782 L29.877,10.782 C29.211,10.782 28.581,10.906 27.988,11.156 C27.393,11.406 26.876,11.75 26.437,12.19 C25.996,12.63 25.653,13.14 25.403,13.722 C25.153,14.305 25.029,14.93 25.029,15.594 C25.029,16.259 25.153,16.89 25.403,17.484 C25.653,18.078 25.996,18.595 26.437,19.034 C26.876,19.473 27.393,19.819 27.988,20.068 C28.581,20.318 29.211,20.442 29.877,20.442" fill-opacity="0" stroke="#FFFFFF" stroke-width="1"/>
    </g>
    <g>
      <path d="M38.967,15.666 C38.967,14.549 39.176,13.508 39.592,12.545 C40.007,11.583 40.578,10.739 41.303,10.014 C42.027,9.289 42.877,8.719 43.852,8.303 C44.827,7.888 45.861,7.679 46.954,7.679 C48.071,7.679 49.11,7.888 50.073,8.303 C51.035,8.719 51.885,9.289 52.622,10.014 C53.359,10.739 53.935,11.583 54.352,12.545 C54.767,13.508 54.975,14.549 54.975,15.666 C54.975,16.759 54.767,17.793 54.352,18.767 C53.935,19.742 53.359,20.598 52.622,21.333 C51.885,22.07 51.035,22.647 50.073,23.063 C49.11,23.479 48.071,23.687 46.954,23.687 C45.861,23.687 44.827,23.479 43.852,23.063 C42.877,22.647 42.027,22.07 41.303,21.333 C40.578,20.598 40.007,19.742 39.592,18.767 C39.176,17.793 38.967,16.759 38.967,15.666 M42.105,15.666 C42.105,16.332 42.23,16.961 42.479,17.555 C42.729,18.149 43.073,18.666 43.513,19.106 C43.952,19.545 44.47,19.89 45.064,20.14 C45.657,20.389 46.288,20.514 46.954,20.514 C47.618,20.514 48.248,20.389 48.842,20.14 C49.437,19.89 49.954,19.545 50.393,19.106 C50.833,18.666 51.178,18.149 51.427,17.555 C51.678,16.961 51.801,16.332 51.801,15.666 C51.801,15.001 51.678,14.377 51.427,13.793 C51.178,13.211 50.833,12.701 50.393,12.261 C49.954,11.821 49.437,11.476 48.842,11.227 C48.248,10.977 47.618,10.852 46.954,10.852 C46.288,10.852 45.657,10.977 45.064,11.227 C44.47,11.476 43.952,11.821 43.513,12.261 C43.073,12.701 42.729,13.211 42.479,13.793 C42.23,14.377 42.105,15.001 42.105,15.666" fill="#B62831"/>
      <path d="M38.967,15.666 C38.967,14.549 39.176,13.508 39.592,12.545 C40.007,11.583 40.578,10.739 41.303,10.014 C42.027,9.289 42.877,8.719 43.852,8.303 C44.827,7.888 45.861,7.679 46.954,7.679 C48.071,7.679 49.11,7.888 50.073,8.303 C51.035,8.719 51.885,9.289 52.622,10.014 C53.359,10.739 53.935,11.583 54.352,12.545 C54.767,13.508 54.975,14.549 54.975,15.666 C54.975,16.759 54.767,17.793 54.352,18.767 C53.935,19.742 53.359,20.598 52.622,21.333 C51.885,22.07 51.035,22.647 50.073,23.063 C49.11,23.479 48.071,23.687 46.954,23.687 C45.861,23.687 44.827,23.479 43.852,23.063 C42.877,22.647 42.027,22.07 41.303,21.333 C40.578,20.598 40.007,19.742 39.592,18.767 C39.176,17.793 38.967,16.759 38.967,15.666 M42.105,15.666 C42.105,16.332 42.23,16.961 42.479,17.555 C42.729,18.149 43.073,18.666 43.513,19.106 C43.952,19.545 44.47,19.89 45.064,20.14 C45.657,20.389 46.288,20.514 46.954,20.514 C47.618,20.514 48.248,20.389 48.842,20.14 C49.437,19.89 49.954,19.545 50.393,19.106 C50.833,18.666 51.178,18.149 51.427,17.555 C51.678,16.961 51.801,16.332 51.801,15.666 C51.801,15.001 51.678,14.377 51.427,13.793 C51.178,13.211 50.833,12.701 50.393,12.261 C49.954,11.821 49.437,11.476 48.842,11.227 C48.248,10.977 47.618,10.852 46.954,10.852 C46.288,10.852 45.657,10.977 45.064,11.227 C44.47,11.476 43.952,11.821 43.513,12.261 C43.073,12.701 42.729,13.211 42.479,13.793 C42.23,14.377 42.105,15.001 42.105,15.666" fill-opacity="0" stroke="#FFFFFF" stroke-width="1"/>
    </g>
  </g>
</svg>
